<mxfile host="app.diagrams.net" modified="2023-08-01T02:04:09.099Z" agent="Mozilla/5.0 (Windows NT 10.0; Win64; x64) AppleWebKit/537.36 (KHTML, like Gecko) Chrome/115.0.0.0 Safari/537.36" etag="7Y8IPoPQNEyohcAsA6H_" version="21.5.0" type="github">
  <diagram name="페이지-1" id="yi1psPoBtI-C4k0vAu7a">
    <mxGraphModel dx="1434" dy="758" grid="1" gridSize="10" guides="1" tooltips="1" connect="1" arrows="1" fold="1" page="1" pageScale="1" pageWidth="827" pageHeight="1169" math="0" shadow="0">
      <root>
        <mxCell id="0" />
        <mxCell id="1" parent="0" />
        <mxCell id="7tPRHi4h5dOAHcFadUlK-1" value="이용자" style="shape=umlActor;verticalLabelPosition=bottom;verticalAlign=top;html=1;" vertex="1" parent="1">
          <mxGeometry x="30" y="150" width="30" height="60" as="geometry" />
        </mxCell>
        <mxCell id="7tPRHi4h5dOAHcFadUlK-4" value="게시판 서비스" style="shape=umlFrame;whiteSpace=wrap;html=1;pointerEvents=0;width=100;height=30;" vertex="1" parent="1">
          <mxGeometry x="120" y="40" width="650" height="570" as="geometry" />
        </mxCell>
        <mxCell id="7tPRHi4h5dOAHcFadUlK-18" value="" style="rounded=0;orthogonalLoop=1;jettySize=auto;html=1;endArrow=none;endFill=0;entryX=1;entryY=0.3333333333333333;entryDx=0;entryDy=0;entryPerimeter=0;" edge="1" parent="1" source="7tPRHi4h5dOAHcFadUlK-7" target="7tPRHi4h5dOAHcFadUlK-1">
          <mxGeometry relative="1" as="geometry" />
        </mxCell>
        <mxCell id="7tPRHi4h5dOAHcFadUlK-7" value="회원가입" style="rounded=1;whiteSpace=wrap;html=1;arcSize=40;fontColor=#000000;fillColor=#ffffc0;strokeColor=#ff0000;" vertex="1" parent="1">
          <mxGeometry x="170" y="150" width="120" height="40" as="geometry" />
        </mxCell>
        <mxCell id="7tPRHi4h5dOAHcFadUlK-23" style="rounded=0;orthogonalLoop=1;jettySize=auto;html=1;exitX=0;exitY=0.5;exitDx=0;exitDy=0;endArrow=none;endFill=0;entryX=1;entryY=0.3333333333333333;entryDx=0;entryDy=0;entryPerimeter=0;" edge="1" parent="1" source="7tPRHi4h5dOAHcFadUlK-9" target="7tPRHi4h5dOAHcFadUlK-1">
          <mxGeometry relative="1" as="geometry" />
        </mxCell>
        <mxCell id="7tPRHi4h5dOAHcFadUlK-27" style="rounded=0;orthogonalLoop=1;jettySize=auto;html=1;exitX=1;exitY=0.25;exitDx=0;exitDy=0;entryX=0.5;entryY=1;entryDx=0;entryDy=0;dashed=1;" edge="1" parent="1" source="7tPRHi4h5dOAHcFadUlK-9" target="7tPRHi4h5dOAHcFadUlK-11">
          <mxGeometry relative="1" as="geometry" />
        </mxCell>
        <mxCell id="7tPRHi4h5dOAHcFadUlK-9" value="게시판 보기" style="rounded=1;whiteSpace=wrap;html=1;arcSize=40;fontColor=#000000;fillColor=#ffffc0;strokeColor=#ff0000;" vertex="1" parent="1">
          <mxGeometry x="170" y="260" width="120" height="40" as="geometry" />
        </mxCell>
        <mxCell id="7tPRHi4h5dOAHcFadUlK-24" style="rounded=0;orthogonalLoop=1;jettySize=auto;html=1;exitX=0;exitY=0.5;exitDx=0;exitDy=0;endArrow=none;endFill=0;entryX=1;entryY=0.3333333333333333;entryDx=0;entryDy=0;entryPerimeter=0;" edge="1" parent="1" source="7tPRHi4h5dOAHcFadUlK-10" target="7tPRHi4h5dOAHcFadUlK-1">
          <mxGeometry relative="1" as="geometry">
            <mxPoint x="70" y="110" as="targetPoint" />
          </mxGeometry>
        </mxCell>
        <mxCell id="7tPRHi4h5dOAHcFadUlK-29" style="rounded=0;orthogonalLoop=1;jettySize=auto;html=1;exitX=1;exitY=0.25;exitDx=0;exitDy=0;dashed=1;entryX=0.5;entryY=1;entryDx=0;entryDy=0;" edge="1" parent="1" source="7tPRHi4h5dOAHcFadUlK-10" target="7tPRHi4h5dOAHcFadUlK-11">
          <mxGeometry relative="1" as="geometry">
            <mxPoint x="391.61290322580635" y="160" as="targetPoint" />
          </mxGeometry>
        </mxCell>
        <mxCell id="7tPRHi4h5dOAHcFadUlK-10" value="게시글 보기" style="rounded=1;whiteSpace=wrap;html=1;arcSize=40;fontColor=#000000;fillColor=#ffffc0;strokeColor=#ff0000;" vertex="1" parent="1">
          <mxGeometry x="170" y="420" width="120" height="40" as="geometry" />
        </mxCell>
        <mxCell id="7tPRHi4h5dOAHcFadUlK-19" style="rounded=0;orthogonalLoop=1;jettySize=auto;html=1;exitX=0;exitY=0.5;exitDx=0;exitDy=0;entryX=1;entryY=0.3333333333333333;entryDx=0;entryDy=0;entryPerimeter=0;endArrow=none;endFill=0;" edge="1" parent="1" source="7tPRHi4h5dOAHcFadUlK-11" target="7tPRHi4h5dOAHcFadUlK-1">
          <mxGeometry relative="1" as="geometry" />
        </mxCell>
        <mxCell id="7tPRHi4h5dOAHcFadUlK-25" value="&amp;lt;&amp;lt;incrude&amp;gt;&amp;gt;" style="edgeStyle=orthogonalEdgeStyle;rounded=0;orthogonalLoop=1;jettySize=auto;html=1;exitX=1;exitY=0.5;exitDx=0;exitDy=0;entryX=0;entryY=0.5;entryDx=0;entryDy=0;dashed=1;" edge="1" parent="1" source="7tPRHi4h5dOAHcFadUlK-11" target="7tPRHi4h5dOAHcFadUlK-12">
          <mxGeometry relative="1" as="geometry" />
        </mxCell>
        <mxCell id="7tPRHi4h5dOAHcFadUlK-26" value="&amp;lt;&amp;lt;extend&amp;gt;&amp;gt;" style="rounded=0;orthogonalLoop=1;jettySize=auto;html=1;entryX=1;entryY=0.5;entryDx=0;entryDy=0;exitX=0;exitY=0.5;exitDx=0;exitDy=0;dashed=1;" edge="1" parent="1" source="7tPRHi4h5dOAHcFadUlK-13" target="7tPRHi4h5dOAHcFadUlK-11">
          <mxGeometry relative="1" as="geometry">
            <mxPoint x="430" y="120" as="sourcePoint" />
            <mxPoint x="550" y="230" as="targetPoint" />
          </mxGeometry>
        </mxCell>
        <mxCell id="7tPRHi4h5dOAHcFadUlK-11" value="회원로그인" style="rounded=1;whiteSpace=wrap;html=1;arcSize=40;fontColor=#000000;fillColor=#ffffc0;strokeColor=#ff0000;" vertex="1" parent="1">
          <mxGeometry x="320" y="50" width="120" height="40" as="geometry" />
        </mxCell>
        <mxCell id="7tPRHi4h5dOAHcFadUlK-12" value="인증" style="rounded=1;whiteSpace=wrap;html=1;arcSize=40;fontColor=#000000;fillColor=#ffffc0;strokeColor=#ff0000;" vertex="1" parent="1">
          <mxGeometry x="560" y="50" width="120" height="40" as="geometry" />
        </mxCell>
        <mxCell id="7tPRHi4h5dOAHcFadUlK-13" value="로그인 실패" style="rounded=1;whiteSpace=wrap;html=1;arcSize=40;fontColor=#000000;fillColor=#ffffc0;strokeColor=#ff0000;" vertex="1" parent="1">
          <mxGeometry x="560" y="160" width="120" height="40" as="geometry" />
        </mxCell>
        <mxCell id="7tPRHi4h5dOAHcFadUlK-31" style="rounded=0;orthogonalLoop=1;jettySize=auto;html=1;exitX=0;exitY=0.5;exitDx=0;exitDy=0;entryX=1;entryY=0.5;entryDx=0;entryDy=0;dashed=1;" edge="1" parent="1" source="7tPRHi4h5dOAHcFadUlK-14" target="7tPRHi4h5dOAHcFadUlK-9">
          <mxGeometry relative="1" as="geometry" />
        </mxCell>
        <mxCell id="7tPRHi4h5dOAHcFadUlK-14" value="게시판 정렬" style="rounded=1;whiteSpace=wrap;html=1;arcSize=40;fontColor=#000000;fillColor=#ffffc0;strokeColor=#ff0000;" vertex="1" parent="1">
          <mxGeometry x="354" y="220" width="120" height="40" as="geometry" />
        </mxCell>
        <mxCell id="7tPRHi4h5dOAHcFadUlK-34" value="" style="rounded=0;orthogonalLoop=1;jettySize=auto;html=1;dashed=1;exitX=0;exitY=0.25;exitDx=0;exitDy=0;entryX=1;entryY=0.5;entryDx=0;entryDy=0;" edge="1" parent="1" source="7tPRHi4h5dOAHcFadUlK-15" target="7tPRHi4h5dOAHcFadUlK-9">
          <mxGeometry relative="1" as="geometry">
            <mxPoint x="270" y="290" as="targetPoint" />
          </mxGeometry>
        </mxCell>
        <mxCell id="7tPRHi4h5dOAHcFadUlK-15" value="게시판 검색" style="rounded=1;whiteSpace=wrap;html=1;arcSize=40;fontColor=#000000;fillColor=#ffffc0;strokeColor=#ff0000;" vertex="1" parent="1">
          <mxGeometry x="354" y="300" width="120" height="40" as="geometry" />
        </mxCell>
        <mxCell id="7tPRHi4h5dOAHcFadUlK-35" value="" style="rounded=0;orthogonalLoop=1;jettySize=auto;html=1;dashed=1;entryX=1;entryY=0.5;entryDx=0;entryDy=0;exitX=0;exitY=0.5;exitDx=0;exitDy=0;" edge="1" parent="1" source="7tPRHi4h5dOAHcFadUlK-16" target="7tPRHi4h5dOAHcFadUlK-10">
          <mxGeometry relative="1" as="geometry" />
        </mxCell>
        <mxCell id="7tPRHi4h5dOAHcFadUlK-16" value="게시글 쓰기, 수정, 삭제" style="rounded=1;whiteSpace=wrap;html=1;arcSize=40;fontColor=#000000;fillColor=#ffffc0;strokeColor=#ff0000;" vertex="1" parent="1">
          <mxGeometry x="354" y="380" width="120" height="40" as="geometry" />
        </mxCell>
        <mxCell id="7tPRHi4h5dOAHcFadUlK-36" style="rounded=0;orthogonalLoop=1;jettySize=auto;html=1;exitX=0;exitY=0.5;exitDx=0;exitDy=0;entryX=1;entryY=0.5;entryDx=0;entryDy=0;dashed=1;" edge="1" parent="1" source="7tPRHi4h5dOAHcFadUlK-17" target="7tPRHi4h5dOAHcFadUlK-10">
          <mxGeometry relative="1" as="geometry" />
        </mxCell>
        <mxCell id="7tPRHi4h5dOAHcFadUlK-17" value="댓글 보기, 쓰기, &lt;br&gt;수정, 삭제" style="rounded=1;whiteSpace=wrap;html=1;arcSize=40;fontColor=#000000;fillColor=#ffffc0;strokeColor=#ff0000;" vertex="1" parent="1">
          <mxGeometry x="354" y="460" width="120" height="40" as="geometry" />
        </mxCell>
      </root>
    </mxGraphModel>
  </diagram>
</mxfile>
